
        <svg xmlns="http://www.w3.org/2000/svg" xmlns:xlink="http://www.w3.org/1999/xlink" version="1.1" width="3187.5" 
        height="742.7287689360918" viewBox="0 0 3187.5 742.7287689360918">
			
			<g transform="scale(9.375) translate(10, 10)">
				<defs id="SvgjsDefs1021"></defs><g id="SvgjsG1022" featureKey="S6ay6y-0" transform="matrix(1.206592736104051,0,0,1.206592736104051,-4.248408598243613,-21.928616128199003)" fill="#ffffff"><path xmlns="http://www.w3.org/2000/svg" d="M86.026,47.116c-2.404-2.744-7.647-4.449-13.682-4.449c-0.554,0-1.12,0.021-1.689,0.052  c2.097-6.186,2.168-12.485-0.018-15.881l-0.307-0.478l-0.551-0.133c-0.619-0.15-1.301-0.227-2.028-0.227  c-3.386,0-8.352,1.748-13.077,5.467c-1.865-6.324-5.487-11.57-9.267-13.083l-0.526-0.21l-0.526,0.21  c-3.847,1.539-7.534,6.943-9.367,13.417c-4.851-3.952-10.013-5.801-13.502-5.801c-0.727,0-1.409,0.076-2.027,0.227l-0.551,0.133  l-0.307,0.478c-2.183,3.392-2.115,9.681-0.025,15.86c-0.333-0.011-0.671-0.031-0.999-0.031c-6.035,0-11.278,1.705-13.683,4.449  l-0.373,0.426l0.023,0.566c0.314,7.562,12.757,19.15,27.493,19.15c4.672,0,9.263-1.138,13.668-3.356l0.176,0.159l0.234-0.211  c4.435,2.252,9.061,3.408,13.769,3.408c0,0,0,0,0.001,0c14.736,0,27.178-11.588,27.491-19.15l0.023-0.566L86.026,47.116z   M67.752,28.836c0.276,0,0.539,0.015,0.786,0.044c1.335,2.749,1.251,8.356-1.017,14.174c-4.096,0.625-8.366,2.077-12.282,4.573  c1.16-5.01,0.822-9.561,0.263-12.689c-0.024-0.137-0.056-0.271-0.083-0.407C59.774,30.781,64.556,28.836,67.752,28.836z   M36.766,37.439c0.311,0.352,0.619,0.71,0.918,1.083c2.194,2.734,4.454,6.555,5.485,11.409c-0.311,1.632-0.489,3.369-0.505,5.206  c-1.31-1.803-2.764-3.376-4.317-4.748C36.494,45.535,36.386,40.902,36.766,37.439z M52.935,36.933  c0.452,3.559,0.422,8.497-1.607,13.67c-1.734,1.566-3.333,3.398-4.747,5.513c0.052-2.206-0.146-4.262-0.513-6.185  c1.031-4.854,3.292-8.674,5.486-11.408C52,37.966,52.464,37.442,52.935,36.933z M40.939,60.145  c-10.124-2.414-15.377-9.338-17.872-14.113c3.755,0.702,8.518,2.299,12.801,5.855C36.975,54.635,38.602,57.434,40.939,60.145z   M53.809,52.094c4.061-3.458,8.581-5.122,12.279-5.909c-2.467,4.657-7.541,11.239-17.106,13.771  C51.175,57.373,52.73,54.712,53.809,52.094z M44.881,21.267c2.699,1.477,5.908,6.148,7.419,12.266  c-1.018,0.975-2.012,2.038-2.957,3.215c-1.705,2.125-3.444,4.85-4.725,8.139c-1.281-3.289-3.019-6.014-4.724-8.138  c-0.814-1.014-1.664-1.945-2.534-2.808C38.827,27.621,42.121,22.776,44.881,21.267z M20.7,28.88  c3.22-0.383,8.708,1.701,13.563,6.041c-0.001,0.005-0.002,0.01-0.003,0.015c-0.555,3.104-0.89,7.61,0.238,12.574  c-4.098-2.57-8.575-4.017-12.824-4.569C19.447,37.164,19.374,31.611,20.7,28.88z M6.435,48.574  c1.777-1.589,5.733-3.072,11.142-3.072c0.557,0,1.281,0.02,2.133,0.086c0.088,0.196,0.17,0.393,0.262,0.588  c2.456,5.194,8.214,13.741,20.091,16.655c-2.952,1.057-5.973,1.594-9.024,1.594C17.65,64.424,7.324,54.329,6.435,48.574z   M58.884,64.424c-3.145,0-6.256-0.57-9.293-1.691c11.6-3.007,17.249-11.423,19.677-16.557c0.082-0.173,0.154-0.35,0.233-0.524  c1.163-0.117,2.138-0.15,2.844-0.15c5.407,0,9.363,1.484,11.141,3.072C82.597,54.33,72.271,64.424,58.884,64.424z"></path></g><g id="SvgjsG1023" featureKey="j5pGhi-0" transform="matrix(1.3793988914041198,0,0,1.3793988914041198,119.2321795830084,13.01903761375105)" fill="#ffffff"><path d="M0.55664 16.4941 l1.2305 -0.74219 q1.298828125 2.392578125 2.998046875 2.392578125 q0.732421875 0 1.376953125 -0.341796875 t0.97656 -0.9082 t0.33203 -1.2109 q0 -0.72265625 -0.48828125 -1.42578125 q-0.68359375 -0.966796875 -2.490234375 -1.97265625 q-1.81640625 -1.3671875 -2.24609375 -1.982421875 q-0.771484375 -1.015625 -0.771484375 -2.216796875 q0 -0.947265625 0.44921875 -1.71875 t1.2744 -1.2256 t1.792 -0.4541 q1.015625 0 1.904296875 0.5126953125 t1.8848 1.8701 l-1.1816 0.88867 q-0.810546875 -1.07421875 -1.38671875 -1.420898438 t-1.2598 -0.34668 q-0.869140625 0 -1.42578125 0.5322265625 t-0.55664 1.3037 q0 0.46875 0.1953125 0.91796875 t0.72266 0.95703 q0.283203125 0.283203125 1.875 1.455078125 q1.875 1.38671875 2.573242188 2.294921875 t0.69824 1.9922 q0 1.58203125 -1.196289063 2.744140625 t-2.9053 1.1621 q-1.328125 0 -2.40234375 -0.703125 t-1.9727 -2.3535 z M16.621096875 8.203 q2.470703125 0 4.1015625 1.787109375 q1.50390625 1.630859375 1.50390625 3.876953125 q0.01953125 5.546875 0 5.634765625 l-1.4551 0 l0 -2.4316 q-1.142578125 2.12890625 -4.150390625 2.3828125 q-2.4609375 0 -4.018554688 -1.674804688 t-1.5576 -3.9111 q0 -2.2265625 1.474609375 -3.8671875 q1.630859375 -1.796875 4.1015625 -1.796875 z M16.621096875 9.551 q-1.708984375 0 -2.939453125 1.26953125 t-1.2305 3.0664 q0 1.162109375 0.6298828125 2.236328125 t2.1338 1.8164 q3.76953125 0.83984375 5.361328125 -3.427734375 q0.087890625 -1.3671875 -0.29296875 -2.6171875 q-0.2734375 -0.56640625 -0.751953125 -1.07421875 q-1.201171875 -1.26953125 -2.91015625 -1.26953125 z M23.886720625 8.75 l1.4648 0 l3.584 7.793 l3.5547 -7.793 l1.4746 0 l-4.9023 10.713 l-0.24414 0 z M45.07825 15.6348 l1.1523 0.61523 q-0.556640625 1.123046875 -1.30859375 1.806640625 t-1.6895 1.04 t-2.1191 0.35645 q-2.6171875 0 -4.091796875 -1.713867188 t-1.4746 -3.8721 q0 -2.041015625 1.25 -3.6328125 q1.58203125 -2.03125 4.248046875 -2.03125 q2.724609375 0 4.365234375 2.080078125 q1.162109375 1.46484375 1.171875 3.65234375 l-9.6191 0 q0.0390625 1.875 1.19140625 3.071289063 t2.8418 1.1963 q0.8203125 0 1.591796875 -0.2880859375 t1.3135 -0.75684 t1.1768 -1.5234 z M45.07825 12.7539 q-0.2734375 -1.103515625 -0.80078125 -1.762695313 t-1.3965 -1.0645 t-1.8262 -0.40527 q-1.572265625 0 -2.705078125 1.015625 q-0.8203125 0.7421875 -1.240234375 2.216796875 l7.9688 0 z M52.949223125 6.348000000000001 l0 -1.4063 l7.9492 0 l0 1.4063 l-3.2422 0 l0 13.076 l-1.4746 0 l0 -13.076 l-3.2324 0 z M62.7343375 4.609 l1.3867 0 l0 6.0645 q0.830078125 -1.103515625 1.831054688 -1.650390625 t2.1729 -0.54688 q1.2109375 0 2.138671875 0.6103515625 t1.3672 1.6357 t0.43945 3.2324 l0 5.5078 l-1.3672 0 l0 -5.1074 q0 -1.85546875 -0.15625 -2.48046875 q-0.25390625 -1.064453125 -0.927734375 -1.596679688 t-1.7676 -0.53223 q-1.25 0 -2.241210938 0.8251953125 t-1.3037 2.0459 q-0.185546875 0.78125 -0.185546875 2.919921875 l0 3.9258 l-1.3867 0 l0 -14.854 z M84.0235625 15.6348 l1.1523 0.61523 q-0.556640625 1.123046875 -1.30859375 1.806640625 t-1.6895 1.04 t-2.1191 0.35645 q-2.6171875 0 -4.091796875 -1.713867188 t-1.4746 -3.8721 q0 -2.041015625 1.25 -3.6328125 q1.58203125 -2.03125 4.248046875 -2.03125 q2.724609375 0 4.365234375 2.080078125 q1.162109375 1.46484375 1.171875 3.65234375 l-9.6191 0 q0.0390625 1.875 1.19140625 3.071289063 t2.8418 1.1963 q0.8203125 0 1.591796875 -0.2880859375 t1.3135 -0.75684 t1.1768 -1.5234 z M84.0235625 12.7539 q-0.2734375 -1.103515625 -0.80078125 -1.762695313 t-1.3965 -1.0645 t-1.8262 -0.40527 q-1.572265625 0 -2.705078125 1.015625 q-0.8203125 0.7421875 -1.240234375 2.216796875 l7.9688 0 z M92.509765625 4.98 l1.4844 0 l2.9492 10.439 l4.1406 -10.439 l0.3125 0 l4.1016 10.439 l2.998 -10.439 l1.4746 0 l-4.1504 14.482 l-0.2832 0 l-4.2871 -10.957 l-4.3848 10.957 l-0.26367 0 z M116.3964875 8.203 q2.470703125 0 4.1015625 1.787109375 q1.474609375 1.640625 1.474609375 3.876953125 t-1.5625 3.9111 t-4.0137 1.6748 q-2.4609375 0 -4.018554688 -1.674804688 t-1.5576 -3.9111 q0 -2.2265625 1.474609375 -3.8671875 q1.630859375 -1.796875 4.1015625 -1.796875 z M116.3964875 9.551 q-1.708984375 0 -2.939453125 1.26953125 t-1.2305 3.0664 q0 1.162109375 0.5615234375 2.172851563 t1.5186 1.5527 t2.0898 0.54199 q1.15234375 0 2.104492188 -0.5419921875 t1.5088 -1.5527 t0.55664 -2.1729 q0 -1.796875 -1.23046875 -3.06640625 t-2.9395 -1.2695 z M123.984415625 14.541 l0 -1.2891 q0.15625 -0.966796875 0.44921875 -1.572265625 q0.68359375 -1.6796875 1.8359375 -2.4609375 t1.9141 -0.78125 q0.56640625 0 1.2109375 0.37109375 l-0.71289 1.1523 q-0.908203125 -0.33203125 -1.801757813 0.537109375 t-1.2354 1.8945 q-0.25390625 0.908203125 -0.25390625 3.408203125 l0 3.623 l-1.4063 0 l0 -4.8828 z M130.351603125 4.59 l1.3867 0 l0 14.854 l-1.3867 0 l0 -14.854 z M144.492640625 17.3633 q0.87890625 -1.46484375 1.0546875 -2.880859375 q0 -10.16601563 0 -10.14648438 l-1.3672 0 l0 5.9766 q-0.869140625 -1.064453125 -1.943359375 -1.586914063 t-2.3535 -0.52246 q-2.265625 0 -3.876953125 1.650390625 t-1.6113 4.0039 q0 2.314453125 1.62109375 3.955078125 t3.9063 1.6406 q1.30859375 0 2.456054688 -0.5029296875 t2.1143 -1.5869 z M140.039040625 18.1348 q-1.162109375 0 -2.133789063 -0.5712890625 t-1.5479 -1.5869 t-0.57617 -2.168 q0 -1.1328125 0.5810546875 -2.172851563 t1.5625 -1.6113 t2.0947 -0.57129 q1.1328125 0 2.1484375 0.5712890625 t1.5625 1.5527 t0.54688 2.1924 q0 1.865234375 -1.23046875 3.115234375 t-3.0078 1.25 z"></path></g>
			</g>
		</svg>
	